<svg version="1.1" id="Layer_1" xmlns="http://www.w3.org/2000/svg" xmlns:xlink="http://www.w3.org/1999/xlink" x="0px" y="0px"
	 width="100%" viewBox="0 0 1024 1024" enable-background="new 0 0 1024 1024" xml:space="preserve">
<path fill="#000000" opacity="1.000000" stroke="none" 
	d="
M504.187622,164.088959 
	C511.650757,158.219437 513.909302,158.222473 521.105591,163.766846 
	C575.722717,205.846161 630.358398,247.901535 684.925476,290.045685 
	C687.635498,292.138733 692.241211,293.717560 690.813965,298.307922 
	C689.326538,303.092102 684.617065,301.933350 680.932434,302.012268 
	C674.270935,302.154938 667.603882,302.022217 660.939270,302.043488 
	C654.873413,302.062836 654.282104,302.625122 654.249268,308.520386 
	C654.212097,315.184906 654.123230,321.852936 654.296753,328.513184 
	C654.381042,331.749237 652.956604,332.976227 649.947449,333.232574 
	C614.024048,336.293152 580.134827,367.013885 574.588928,408.596588 
	C573.538940,416.469391 573.977356,424.571991 574.103821,432.562622 
	C574.269470,443.027679 571.400757,451.618805 563.440491,459.286133 
	C539.207703,482.627228 515.645081,506.663544 491.761902,530.369141 
	C489.465637,532.648315 487.692749,535.537048 484.722351,537.249939 
	C483.072876,535.477356 483.748810,533.565063 483.738190,531.852295 
	C483.673035,521.355835 483.762451,510.858398 483.697845,500.361908 
	C483.664764,494.985229 482.147461,493.436157 476.895355,493.412567 
	C464.065979,493.354889 451.235809,493.341736 438.406647,493.421906 
	C432.146454,493.460999 430.420746,495.842285 430.557770,502.180573 
	C430.820496,514.333130 430.994934,526.500916 430.677704,538.648499 
	C430.426300,548.273499 431.375153,549.650818 441.095856,549.650269 
	C449.093567,549.649841 457.091461,549.608521 465.088776,549.662292 
	C466.848297,549.674133 468.726807,549.172974 470.383057,550.344238 
	C470.664795,552.025696 469.317444,552.707947 468.441223,553.593262 
	C464.105011,557.974854 460.020599,562.669067 455.300964,566.596436 
	C437.484863,581.421692 436.859528,610.655762 448.994019,628.611267 
	C450.821533,631.315491 452.991882,633.787964 455.026031,636.396362 
	C453.553680,638.015686 451.788696,637.353516 450.241547,637.356506 
	C427.581451,637.400452 404.921265,637.389954 382.261078,637.381653 
	C374.220154,637.378723 372.713043,635.870239 372.712280,627.729858 
	C372.702606,523.093140 372.701996,418.456451 372.697083,313.819733 
	C372.696533,302.053040 372.690826,302.053986 360.839447,302.060272 
	C354.841217,302.063477 348.842346,302.114441 342.845032,302.040405 
	C340.050140,302.005951 336.902100,302.309662 335.722321,298.826447 
	C334.498535,295.213196 337.046082,293.290283 339.456696,291.427368 
	C357.906403,277.169373 376.373566,262.933929 394.821136,248.673126 
	C431.186493,220.561050 467.542694,192.437088 504.187622,164.088959 
M595.649109,315.500000 
	C595.647705,308.005066 595.698303,300.509674 595.627563,293.015381 
	C595.575195,287.472107 594.239990,286.006287 588.926697,285.984833 
	C575.436646,285.930359 561.945740,286.059082 548.455627,286.009583 
	C544.069458,285.993500 542.176758,287.792175 542.225708,292.321533 
	C542.378845,306.476837 542.230042,320.635071 542.294739,334.791748 
	C542.319031,340.105530 543.840881,341.592499 549.211121,341.617279 
	C562.201965,341.677185 575.193420,341.663727 588.184387,341.609222 
	C593.649719,341.586304 595.558533,339.611816 595.629639,333.987762 
	C595.703308,328.159302 595.647705,322.329254 595.649109,315.500000 
M430.960602,411.500671 
	C430.965515,420.820648 430.994263,430.140656 430.964569,439.460541 
	C430.951202,443.656372 432.530487,445.946960 437.153839,445.902039 
	C450.799744,445.769440 464.447876,445.821991 478.094879,445.873627 
	C482.065704,445.888672 483.784912,444.154327 483.755463,440.120941 
	C483.647461,425.309296 483.663361,410.496399 483.712799,395.684235 
	C483.726715,391.510101 481.684875,389.461395 477.668213,389.445068 
	C464.187592,389.390289 450.706512,389.408142 437.225708,389.438629 
	C432.906494,389.448395 430.877258,391.728516 430.925629,396.021820 
	C430.980011,400.847778 430.951324,405.674683 430.960602,411.500671 
M483.738007,298.553650 
	C483.738647,297.220581 483.741882,295.887543 483.739471,294.554474 
	C483.724945,286.573883 483.155334,285.999054 475.276611,286.002167 
	C462.779755,286.007111 450.282471,285.952545 437.786224,286.043335 
	C432.287994,286.083282 430.972473,287.409882 430.942169,292.873383 
	C430.866364,306.536285 430.850616,320.200256 430.935730,333.863007 
	C430.974243,340.046509 432.610077,341.612091 438.656006,341.629608 
	C451.319641,341.666290 463.983612,341.659821 476.647247,341.619049 
	C482.391022,341.600555 483.688477,340.329315 483.718262,334.530914 
	C483.778198,322.867218 483.737000,311.203033 483.738007,298.553650 
z"/>
<path fill="#000000" opacity="1.000000" stroke="none" 
	d="
M651.580566,405.607452 
	C652.574341,412.101685 653.628784,418.154419 654.317810,424.248444 
	C655.216492,432.196014 659.359802,437.114197 667.160706,438.697784 
	C674.317505,440.150604 681.574341,441.166962 688.661072,442.892853 
	C695.321228,444.514862 700.370361,442.207611 704.843994,437.673218 
	C714.086304,428.305450 723.311584,418.920776 732.518188,409.517822 
	C734.211670,407.788177 735.981995,406.208771 738.594360,406.908325 
	C741.327759,407.640320 741.903931,410.120026 742.141479,412.416626 
	C743.787781,428.332733 743.322388,444.076385 736.101990,458.766235 
	C722.935486,485.553406 701.460571,499.641418 671.412109,500.365173 
	C663.948914,500.544952 656.453308,499.535675 649.017883,501.230530 
	C643.004883,502.601105 637.670776,505.165955 633.338440,509.512756 
	C595.006470,547.972961 556.143372,585.907959 518.505737,625.054443 
	C505.365540,638.721497 483.451019,639.707336 470.142578,626.660583 
	C456.359467,613.148499 456.175049,590.476013 469.524170,577.305359 
	C505.810883,541.503662 541.910461,505.511536 578.313538,469.828979 
	C588.130249,460.206635 592.404480,448.782410 592.687439,435.386627 
	C592.915161,424.602966 591.947205,413.800476 594.497559,403.077332 
	C600.942871,375.977295 623.049622,355.225128 650.623413,350.661377 
	C661.459473,348.867859 672.167236,349.479279 682.825195,351.736847 
	C688.957764,353.035797 690.114868,356.774506 685.764343,361.228638 
	C676.224548,370.995697 666.654785,380.735107 656.979492,390.367401 
	C652.802734,394.525543 650.648010,399.255249 651.580566,405.607452 
M487.054169,609.417480 
	C492.872711,614.516418 498.907410,615.213745 504.756775,611.462952 
	C509.692993,608.297729 512.476257,601.905273 511.154236,596.930908 
	C509.423096,590.417480 505.083405,586.506836 498.585327,585.778320 
	C492.904388,585.141357 488.294556,587.927551 485.134552,592.691040 
	C481.972076,597.458191 482.574860,603.257874 487.054169,609.417480 
M587.621704,511.343353 
	C591.065063,508.660553 594.063049,505.617249 595.745605,501.477783 
	C597.180420,497.947418 595.682251,491.423248 592.621887,489.250122 
	C589.067261,486.726013 585.332275,486.331085 581.558655,489.065369 
	C576.220581,492.933197 572.676453,498.389008 569.470459,503.854279 
	C566.818115,508.375854 569.185364,511.848297 574.500061,513.394897 
	C578.957031,514.691833 583.018127,513.797363 587.621704,511.343353 
z"/>
<path fill="#000000" opacity="1.000000" stroke="none" 
	d="
M310.415314,752.705078 
	C309.314240,751.277283 308.401794,750.131348 307.373810,748.840332 
	C305.796051,750.838013 306.419434,752.887329 306.417999,754.763245 
	C306.400391,777.901978 306.469452,801.040649 306.471344,824.179382 
	C306.471863,830.317139 305.812195,830.951111 299.516876,831.027283 
	C293.686096,831.097839 287.853424,831.080261 282.022247,831.027222 
	C275.932892,830.971863 274.806274,829.850952 274.800415,823.641846 
	C274.773163,794.816650 274.787109,765.991516 274.786591,737.166321 
	C274.786377,724.336609 274.751923,711.506836 274.802338,698.677307 
	C274.826294,692.579041 275.767944,691.667297 281.731140,691.630005 
	C287.562592,691.593567 293.407501,691.867310 299.221954,691.551697 
	C303.763611,691.305176 306.493103,692.984863 308.962036,696.842957 
	C325.479736,722.654541 342.240356,748.310669 358.926056,774.014709 
	C359.461456,774.839417 360.039062,775.636780 360.898376,776.884460 
	C362.033875,774.691895 361.617188,772.738281 361.620331,770.916626 
	C361.662018,746.756836 361.640778,722.597046 361.656372,698.437195 
	C361.660614,691.884338 361.886627,691.668823 368.385193,691.638367 
	C374.216736,691.611023 380.048645,691.610840 385.880157,691.640198 
	C392.802948,691.674927 393.337311,692.188965 393.339966,699.040710 
	C393.353210,733.197693 393.346405,767.354736 393.345917,801.511719 
	C393.345795,809.342834 393.216034,817.176758 393.390564,825.003967 
	C393.487274,829.342651 391.479523,831.064270 387.396210,831.048889 
	C380.231781,831.021973 373.065338,830.944824 365.903351,831.080139 
	C361.778687,831.158020 359.155853,829.379883 356.973969,825.923340 
	C341.595734,801.561646 326.077454,777.288391 310.415314,752.705078 
z"/>
<path fill="#000000" opacity="1.000000" stroke="none" 
	d="
M217.649902,761.999512 
	C217.650879,740.343994 217.748230,719.187622 217.578903,698.033386 
	C217.541260,693.331848 219.050507,691.367676 223.903259,691.560852 
	C230.888702,691.838928 237.893677,691.697144 244.889175,691.624268 
	C248.698090,691.584656 250.330917,693.412231 250.327423,697.109375 
	C250.299408,726.760315 251.067459,756.437012 250.077652,786.055237 
	C249.033401,817.303406 228.661484,830.678711 200.808746,833.182556 
	C188.170609,834.318726 175.587662,833.341797 163.687073,827.839722 
	C146.533356,819.909058 138.243423,805.928284 137.836060,787.813232 
	C137.165848,758.010315 137.597443,728.182007 137.624557,698.364441 
	C137.630310,692.054993 138.130508,691.664185 144.585037,691.632019 
	C150.581741,691.602112 156.578873,691.602722 162.575562,691.635986 
	C169.277954,691.673096 170.251877,692.652527 170.262512,699.588135 
	C170.302902,725.907654 170.326797,752.227173 170.311111,778.546692 
	C170.308289,783.287292 171.250259,787.796082 173.152222,792.105835 
	C173.752243,793.465515 174.418121,794.866211 175.358322,795.994385 
	C182.213028,804.219604 191.417618,804.928650 200.899841,803.079834 
	C210.058243,801.294128 214.972305,795.009888 216.701126,785.900818 
	C218.178146,778.118408 217.408997,770.300720 217.649902,761.999512 
z"/>
<path fill="#000000" opacity="1.000000" stroke="none" 
	d="
M865.663147,790.394531 
	C873.089111,801.891785 880.354675,813.060913 887.508240,824.301392 
	C890.380432,828.814514 889.500549,830.769897 884.279114,830.906494 
	C875.287170,831.141785 866.284668,830.987854 857.286621,830.973938 
	C853.747803,830.968506 851.509216,829.089417 849.758728,826.102417 
	C842.348755,813.458435 834.821594,800.883118 827.319336,788.293457 
	C826.657715,787.183105 825.865540,786.150635 825.157288,785.115967 
	C823.235352,785.674194 822.849670,787.245667 822.105408,788.471191 
	C814.584473,800.854797 806.979858,813.189636 799.640503,825.680298 
	C797.443420,829.419495 794.673035,831.191284 790.372925,831.116943 
	C782.709412,830.984375 775.041687,831.114441 767.376648,831.038147 
	C760.274597,830.967407 759.163513,829.044434 762.962097,823.064209 
	C774.213623,805.350586 785.140442,787.406067 797.085876,770.169739 
	C802.017578,763.053772 802.056885,758.061218 797.259216,750.942017 
	C785.909973,734.100342 775.504700,716.622192 764.742798,699.385681 
	C763.526794,697.438110 761.682861,695.385559 763.026855,692.987000 
	C764.321533,690.676453 766.947693,691.691528 768.991150,691.664062 
	C776.988708,691.556519 784.994751,691.810059 792.985107,691.546936 
	C797.365173,691.402710 799.971008,692.961365 802.131165,696.837158 
	C809.338257,709.768311 816.910461,722.496033 824.306763,735.239685 
	C827.398804,734.816223 827.852905,732.352600 828.882874,730.648621 
	C835.689392,719.388428 842.449768,708.098206 849.037109,696.708923 
	C851.080933,693.175232 853.538147,691.391846 857.810974,691.535461 
	C865.967529,691.809509 874.139893,691.588745 882.305237,691.641479 
	C884.234680,691.653931 886.552490,691.109497 887.634888,693.385803 
	C888.575928,695.364868 886.986816,696.846863 886.044922,698.353516 
	C873.948792,717.702332 861.928894,737.100403 849.616272,756.310730 
	C847.461609,759.672607 847.484375,762.035889 849.612854,765.234253 
	C855.056274,773.413513 860.196350,781.794617 865.663147,790.394531 
z"/>
<path fill="#000000" opacity="1.000000" stroke="none" 
	d="
M603.498413,829.141846 
	C602.378296,826.873962 602.641357,824.845337 602.640198,822.863770 
	C602.616943,781.707520 602.610046,740.551331 602.618347,699.395081 
	C602.619873,691.733215 602.741943,691.631042 610.545776,691.627869 
	C635.372803,691.617737 660.199890,691.611755 685.026917,691.629333 
	C691.954407,691.634216 692.308228,692.025879 692.328308,699.094055 
	C692.343018,704.259338 692.153137,709.432373 692.377930,714.587830 
	C692.570740,719.008179 690.602417,720.427917 686.406067,720.390808 
	C671.577637,720.259766 656.745728,720.461182 641.918823,720.261292 
	C637.612854,720.203247 635.902832,721.544495 636.088379,725.971802 
	C636.367188,732.625366 636.393555,739.308472 636.099792,745.960205 
	C635.909546,750.268616 637.229004,751.843384 641.720032,751.729614 
	C652.876709,751.446899 664.045410,751.636414 675.209229,751.635315 
	C685.309875,751.634277 685.309326,751.633789 685.310913,761.484680 
	C685.311462,765.150452 685.330811,768.816223 685.314392,772.481934 
	C685.282532,779.599792 684.599792,780.309692 677.673096,780.319275 
	C665.842773,780.335632 654.005737,780.558289 642.185242,780.219360 
	C637.210388,780.076660 635.967407,781.845337 636.072998,786.524658 
	C636.347473,798.681946 636.201050,810.849854 636.148254,823.013123 
	C636.118835,829.782471 634.992493,830.944275 628.369568,831.042053 
	C622.039246,831.135559 615.706543,831.072693 609.374878,831.070862 
	C607.364990,831.070251 605.348633,831.067627 603.498413,829.141846 
z"/>
<path fill="#000000" opacity="1.000000" stroke="none" 
	d="
M597.862671,570.856567 
	C613.663086,555.055054 629.214600,539.517029 644.762573,523.975586 
	C647.121094,521.618042 649.466797,519.250427 653.156677,519.316040 
	C654.777344,520.919128 654.212158,522.850464 654.213867,524.583557 
	C654.247131,559.064514 654.246887,593.545532 654.218750,628.026489 
	C654.212402,635.765686 652.564941,637.376831 644.860474,637.382874 
	C609.046997,637.410889 573.233521,637.427673 537.420044,637.427246 
	C535.966919,637.427246 534.424500,637.785461 532.408630,636.310608 
	C554.221313,614.502075 575.916992,592.810547 597.862671,570.856567 
z"/>
<path fill="#000000" opacity="1.000000" stroke="none" 
	d="
M583.087402,698.317505 
	C583.081726,704.114746 583.132080,709.447510 583.043030,714.777954 
	C582.979614,718.575317 581.206543,720.479492 577.113770,720.400269 
	C568.285767,720.229431 559.448242,720.507202 550.622192,720.291748 
	C545.856018,720.175415 544.302368,722.027710 544.325134,726.765625 
	C544.479675,758.924438 544.410156,791.084351 544.397949,823.243896 
	C544.395203,830.447327 543.921692,830.952637 536.829285,831.026184 
	C530.831299,831.088440 524.831726,831.072937 518.833618,831.011536 
	C512.342712,830.945068 511.638123,830.249329 511.635040,823.848877 
	C511.619873,792.355835 511.632935,760.862854 511.633362,729.369812 
	C511.633514,719.079895 512.146301,720.401794 502.372833,720.348877 
	C494.374847,720.305542 486.374969,720.247437 478.378784,720.374451 
	C474.381470,720.437866 472.551880,718.840210 472.643829,714.760010 
	C472.778931,708.764282 472.756683,702.762329 472.662567,696.765198 
	C472.606140,693.168640 474.233398,691.626892 477.779144,691.630066 
	C511.105011,691.659729 544.430908,691.663818 577.756836,691.628723 
	C582.110901,691.624146 583.007935,694.324585 583.087402,698.317505 
z"/>
<path fill="#000000" opacity="1.000000" stroke="none" 
	d="
M453.349487,791.000122 
	C453.347717,802.653442 453.247528,813.808105 453.393982,824.959473 
	C453.449646,829.197998 451.744263,831.107239 447.520813,831.056396 
	C440.363800,830.970154 433.204834,830.959229 426.047485,831.015015 
	C421.366150,831.051514 419.630951,828.782593 419.639191,824.202515 
	C419.714508,782.252747 419.662476,740.302856 419.695129,698.352966 
	C419.699432,692.854492 420.969116,691.681946 426.553497,691.639038 
	C433.378235,691.586670 440.208496,691.788757 447.027313,691.582031 
	C451.785126,691.437744 453.447021,693.388489 453.426178,698.110718 
	C453.290222,728.906677 453.352051,759.703491 453.349487,791.000122 
z"/>
<path fill="#000000" opacity="1.000000" stroke="none" 
	d="
M711.593506,801.000000 
	C711.590576,766.855225 711.584961,733.210449 711.589966,699.565735 
	C711.591125,692.080139 712.033936,691.643738 719.544678,691.622620 
	C725.540710,691.605774 731.537109,691.589966 737.532959,691.630249 
	C743.779175,691.672241 744.368896,692.219360 744.373169,698.559021 
	C744.399170,737.033936 744.386475,775.508850 744.386292,813.983765 
	C744.386292,817.648010 744.254822,821.317932 744.415527,824.975037 
	C744.605164,829.291382 742.463989,831.052307 738.408325,831.044006 
	C731.246582,831.029297 724.084778,831.029480 716.923096,830.998108 
	C713.289124,830.982178 711.477783,829.374451 711.553040,825.483398 
	C711.707703,817.491699 711.596375,809.494751 711.593506,801.000000 
z"/>
</svg>